# xmcd
#
# Track frame offsets:
#	150
#	19740
#	38965
#	60035
#	80935
#	103677
#	122940
#	145900
#	161837
#	180820
#	204320
#	223162
#	245380
#	265940
#	287535
#	307600
#	329875
#
# Disc length: 4627 seconds
#
# Revision: 1
# Processed by: cddbd v1.5PL3 Copyright (c) Steve Scherf et al.
# Submitted via: CDex 1.50Beta5
#
DISCID=f2121111
DTITLE=PRINCESS PRINCESS - The Greatest Princess
DYEAR=1996
DGENRE=Rock
TTITLE0=19 GROWING UP
TTITLE1=GO AWAY BOY
TTITLE2=GET CRAZY!
TTITLE3=M
TTITLE4=DIAMONDS
TTITLE5=世界で一番熱い夏
TTITLE6=友達のまま
TTITLE7=パレードしようよ
TTITLE8=OH YEAH!
TTITLE9=ジュリアン
TTITLE10=ROCK ME
TTITLE11=HIGHWAY STAR
TTITLE12=KISS
TTITLE13=SEVEN YEARS AFTER
TTITLE14=パイロットになりたくて
TTITLE15=GUITAR MAN
TTITLE16=Fly Baby Fly
EXTD=
EXTT0=
EXTT1=
EXTT2=
EXTT3=
EXTT4=
EXTT5=
EXTT6=
EXTT7=
EXTT8=
EXTT9=
EXTT10=
EXTT11=
EXTT12=
EXTT13=
EXTT14=
EXTT15=
EXTT16=
PLAYORDER=
